#!OML:ASF Y:\EmotionMaleHayes\Project 1\Capture day 1\Session 1\Male1.ASF
:FULLY-SPECIFIED
:DEGREES
65
root -27.8363 16.9525 1.19693 32.7611 82.3483 27.0895
lowerback 7.49221 1.14945 -7.72862
upperback 0.620454 0.895789 -0.428465
thorax -3.6742 0.575178 3.80136
lowerneck -29.0145 4.87592 6.52954
upperneck 27.2561 5.59213 -4.22489
head 14.5591 2.50323 -1.64868
rclavicle -2.3233e-015 1.69961e-014
rhumerus -43.8084 16.9085 -94.6919
rradius 45.4547
rwrist -8.44506
rhand -12.0799 -29.8206
rfingers 7.12502
rthumb 13.98 -59.3306
lclavicle -2.3233e-015 1.69961e-014
lhumerus -33.0047 -26.7734 88.9492
lradius 56.3921
lwrist 7.51264
lhand -21.0933 -21.3354
lfingers 7.12502
lthumb 5.28429 8.57867
rfemur 4.82234 -6.46078 12.1417
rtibia 8.65429
rfoot -25.4696 -4.79443
rtoes 1.51704
lfemur 9.22096 3.54863 -18.614
ltibia 2.74064
lfoot -22.9824 9.0437
ltoes -9.87892
66
root -27.7831 16.9512 1.20526 34.8703 82.1818 28.934
lowerback 7.80625 1.12387 -7.98635
upperback 0.51291 0.803318 -0.489957
thorax -3.95494 0.546708 3.88773
lowerneck -29.0445 4.90099 6.43723
upperneck 27.159 5.60329 -4.06186
head 14.5134 2.52033 -1.56303
rclavicle -1.25359e-014 -9.88954e-015
rhumerus -44.8378 17.7331 -94.9938
rradius 46.4947
rwrist -9.20348
rhand -11.9254 -31.0385
rfingers 7.12502
rthumb 14.1289 -60.5381
lclavicle -1.25359e-014 -9.88954e-015
lhumerus -34.3025 -26.8902 89.1854
lradius 58.4437
lwrist 8.67761
lhand -22.3272 -21.3212
lfingers 7.12502
lthumb 4.09279 8.61927
rfemur 4.84782 -6.75453 11.6674
rtibia 8.47198
rfoot -25.4508 -4.69745
rtoes 0.777744
lfemur 9.00882 3.51111 -18.9813
ltibia 2.94691
lfoot -23.1317 8.96239
ltoes -9.17352
67
root -27.7226 16.9486 1.21016 35.3489 81.9884 29.1566
lowerback 7.99676 1.13364 -8.03631
upperback 0.483318 0.791591 -0.511666
thorax -4.09204 0.547695 3.89221
lowerneck -29.2245 4.94962 6.54429
upperneck 27.2755 5.66373 -4.1992
head 14.6145 2.53402 -1.62323
rclavicle 1.19271e-015 4.87022e-015
rhumerus -45.7518 18.5247 -95.221
rradius 47.3641
rwrist -9.72204
rhand -11.9232 -31.3643
rfingers 7.12502
rthumb 14.131 -60.8638
lclavicle 1.19271e-015 4.87022e-015
lhumerus -35.645 -27.1633 89.42
lradius 60.5774
lwrist 10.0331
lhand -23.557 -21.4795
lfingers 7.12502
lthumb 2.90518 8.4805
rfemur 4.88533 -6.81511 11.4591
rtibia 8.30601
rfoot -25.44 -4.68031
rtoes -0.348077
lfemur 8.92178 3.36111 -19.2212
ltibia 3.03077
lfoot -23.3032 9.13443
ltoes -8.2948
68
root -27.663 16.9435 1.21433 34.6806 81.8571 28.2605
lowerback 8.23451 1.15216 -7.88736
upperback 0.4568 0.805779 -0.503521
thorax -4.25322 0.55847 3.81284
lowerneck -29.1146 4.97177 6.63873
upperneck 27.1451 5.69177 -4.31696
head 14.545 2.53923 -1.68199
rclavicle -9.11925e-015 2.93207e-014
rhumerus -46.7371 19.3617 -95.501
rradius 48.3772
rwrist -10.3887
rhand -12.0139 -31.6659
rfingers 7.12502
rthumb 14.0436 -61.1714
lclavicle -9.11925e-015 2.93207e-014
lhumerus -36.8259 -27.3461 89.6287
lradius 62.3688
lwrist 11.3422
lhand -24.8397 -21.5479
lfingers 7.12502
lthumb 1.66639 8.42532
rfemur 4.8616 -6.74492 11.5205
rtibia 8.29037
rfoot -25.5168 -4.71227
rtoes -1.47511
lfemur 8.74204 3.37493 -19.2433
ltibia 3.40474
lfoot -23.5832 9.35987
ltoes -8.45439
69
root -27.6081 16.9386 1.21904 34.2297 81.8038 27.5047
lowerback 8.46431 1.15167 -7.72896
upperback 0.406565 0.796409 -0.474836
thorax -4.43215 0.558379 3.75251
lowerneck -29.047 4.97151 6.80687
upperneck 27.0475 5.69805 -4.56775
head 14.5053 2.52285 -1.81208
rclavicle -1.78906e-015 -3.18055e-015
rhumerus -47.7631 20.1207 -95.7547
rradius 49.3972
rwrist -11.0271
rhand -12.0222 -31.82
rfingers 7.12502
rthumb 14.0356 -61.3261
lclavicle -1.78906e-015 -3.18055e-015
lhumerus -37.9643 -27.3298 89.8787
lradius 64.0028
lwrist 12.4651
lhand -26.6239 -21.6165
lfingers 7.12502
lthumb -0.0568229 8.36325
rfemur 4.6736 -6.5694 11.6933
rtibia 8.40057
rfoot -25.7475 -4.8471
rtoes -1.78731
lfemur 8.29228 3.50751 -19.1926
ltibia 4.04771
lfoot -23.7182 9.38554
ltoes -9.03282
70
root -27.551 16.9328 1.22392 34.008 81.7049 26.9198
lowerback 8.67166 1.17877 -7.61201
upperback 0.33722 0.820781 -0.46876
thorax -4.62313 0.576235 3.68744
lowerneck -29.3162 4.96375 6.61829
upperneck 27.1849 5.70425 -4.40484
head 14.6069 2.52481 -1.71063
rclavicle 5.70264e-015 -1.55797e-014
rhumerus -48.6968 20.7349 -95.9635
rradius 50.2675
rwrist -11.6077
rhand -12.0557 -31.5573
rfingers 7.12502
rthumb 14.0033 -61.0656
lclavicle 5.70264e-015 -1.55797e-014
lhumerus -39.1784 -27.3091 90.1925
lradius 65.6583
lwrist 13.4177
lhand -28.2889 -22.1311
lfingers 7.12502
lthumb -1.66494 7.84211
rfemur 4.44921 -6.40559 11.7942
rtibia 8.45276
rfoot -26.0419 -4.86957
rtoes -1.32284
lfemur 7.76205 3.547 -19.2094
ltibia 4.70127
lfoot -23.7467 9.32045
ltoes -8.94375
